PathFileType	4	(X/Y/Z)	 s06c0301.trc
DataRate	CameraRate	NumFrames	NumMarkers	Units	OrigDataRate	OrigDataStartFrame	OrigNumFrames
200	200	4	48	mm	200	251	2000
Frame#	Time	racr			lacr			c7			jug			rlel			rdr			llel			ldr			s2			lic			ric			lasi			rasi			rpsi			lpsi			rgt			lgt			rth1			rth2			rth3			rth4			rlfc			rmfc			rsh1			rsh2			rsh3			rsh4			rlmal			rcal			rtoe			rmt5			lth1			lth2			lth4			lth3			llfc			lmfc			llmal			lcal			lmt5			lsh1			lsh2			lsh3			lsh4			ltoe			SBIKE			LBIKE			RBIKE			
		X1	Y1	Z1	X2	Y2	Z2	X3	Y3	Z3	X4	Y4	Z4	X5	Y5	Z5	X6	Y6	Z6	X7	Y7	Z7	X8	Y8	Z8	X9	Y9	Z9	X10	Y10	Z10	X11	Y11	Z11	X12	Y12	Z12	X13	Y13	Z13	X14	Y14	Z14	X15	Y15	Z15	X16	Y16	Z16	X17	Y17	Z17	X18	Y18	Z18	X19	Y19	Z19	X20	Y20	Z20	X21	Y21	Z21	X22	Y22	Z22	X23	Y23	Z23	X24	Y24	Z24	X25	Y25	Z25	X26	Y26	Z26	X27	Y27	Z27	X28	Y28	Z28	X29	Y29	Z29	X30	Y30	Z30	X31	Y31	Z31	X32	Y32	Z32	X33	Y33	Z33	X34	Y34	Z34	X35	Y35	Z35	X36	Y36	Z36	X37	Y37	Z37	X38	Y38	Z38	X39	Y39	Z39	X40	Y40	Z40	X41	Y41	Z41	X42	Y42	Z42	X43	Y43	Z43	X44	Y44	Z44	X45	Y45	Z45	X46	Y46	Z46	X47	Y47	Z47	X48	Y48	Z48	
251	1.2550	413.796978	1286.988511	-53.303621	432.750339	1298.836226	-380.117865	413.203609	1398.128114	-214.192154	428.535320	1225.395595	-205.502773	508.024011	1062.725272	28.526927	710.029700	920.482224	-46.216469	506.220043	1059.634605	-463.525165	709.680447	927.892377	-393.610500	-104.189318	1164.559714	-217.242667	85.541950	1097.784484	-382.301807	45.761615	1119.834831	-44.526317	83.539150	1039.156698	-351.218650	NaN	NaN	NaN	-61.773526	1197.347422	-191.898149	-63.682012	1189.991855	-253.526562	-3.461349	1072.781072	-11.612942	31.847942	1043.195820	-414.891148	98.791587	997.129487	-8.034049	184.116749	965.208336	-10.113312	239.092695	897.959730	-15.052488	202.426717	993.717023	-27.388750	303.048156	813.291861	-33.606083	306.382733	789.459902	-143.492260	282.944455	691.615980	-10.679364	289.419332	606.782920	-34.232722	256.226256	526.751113	-39.565092	313.110111	608.226709	-65.559091	239.175542	441.693385	-48.317297	182.066627	405.595381	-100.239239	457.140691	425.882352	-99.294420	364.362100	389.166950	-29.477401	72.713878	931.200613	-424.260075	139.708753	876.048520	-416.498876	168.396363	896.714507	-404.411077	170.626886	792.364973	-410.725389	195.344062	684.553952	-385.950809	195.196129	665.275300	-271.944914	-13.624420	375.992193	-384.234519	-90.115422	374.302402	-338.311188	77.228735	267.136763	-403.997092	138.078817	595.770077	-411.459301	109.365396	515.198986	-393.820419	43.338789	455.243765	-393.193608	131.210663	504.872849	-363.160823	158.109437	242.616968	-343.519487	-204.508707	868.687479	-212.715509	-48.663702	84.049758	-419.280211	-50.222842	80.077580	-21.788773	
252	1.2600	413.703809	1287.016708	-53.221288	432.743251	1298.829942	-380.039073	413.206127	1398.115777	-214.086372	428.551121	1225.441589	-205.415884	508.108794	1062.819029	28.549676	710.054610	920.451710	-46.224095	506.263966	1059.672505	-463.492287	709.701623	927.891042	-393.610918	-104.189422	1164.543031	-217.188450	85.540516	1097.755894	-382.140583	45.735936	1119.843756	-44.481227	83.593360	1039.173581	-351.149329	NaN	NaN	NaN	-61.777666	1197.337811	-191.959558	-63.677604	1189.976987	-253.489102	-3.501054	1072.766646	-11.580964	31.893878	1043.162371	-414.807057	98.771330	997.122935	-8.000993	184.132051	965.273961	-10.059833	239.151145	898.061246	-14.979230	202.451938	993.816338	-27.313844	303.121661	813.387527	-33.538643	306.492781	789.624047	-143.410429	282.989706	691.726720	-10.617842	289.405871	606.897864	-34.209892	256.182103	526.898713	-39.547513	313.090661	608.324871	-65.539404	239.072301	441.845110	-48.306139	181.979748	405.726515	-100.207674	457.063020	426.061800	-99.291529	364.288917	389.322108	-29.463021	72.715144	931.109001	-424.213324	139.694771	875.924049	-416.415680	168.366336	896.592202	-404.369724	170.535950	792.237723	-410.654650	195.347608	684.275318	-386.009955	195.103456	665.161149	-271.877097	-13.619900	375.786494	-384.231524	-90.095236	374.096745	-338.333867	77.260916	266.952710	-403.989568	138.024369	595.623501	-411.413195	109.329027	515.049262	-393.775212	43.342199	455.052457	-393.191510	131.174926	504.730010	-363.105229	158.171792	242.495872	-343.517323	-204.508986	868.687430	-212.714759	-48.655332	84.065832	-419.283625	-50.223749	80.055966	-21.788385	
253	1.2650	413.611984	1287.085245	-53.130466	432.722177	1298.828789	-379.975817	413.205170	1398.115755	-213.997494	428.546327	1225.436391	-205.309769	508.239077	1062.945615	28.556274	710.119920	920.435616	-46.218330	506.316946	1059.704021	-463.458468	709.707123	927.900478	-393.593260	-104.210786	1164.543788	-217.145644	85.547569	1097.761156	-382.009804	45.734628	1119.758655	-44.416671	83.647022	1039.066066	-351.081493	NaN	NaN	NaN	-61.792717	1197.324125	-191.844754	-63.678651	1189.978429	-253.446471	-3.553343	1072.752814	-11.520231	31.941034	1043.122587	-414.713253	98.744610	997.178837	-7.964959	184.107874	965.352346	-10.015952	239.179671	898.191333	-14.889934	202.460554	993.943215	-27.242226	303.162228	813.534076	-33.470915	306.585159	789.803379	-143.369705	283.009990	691.834026	-10.555654	289.406836	607.062350	-34.169451	256.127462	527.034849	-39.526286	313.080138	608.435441	-65.490646	238.983975	441.979058	-48.301030	181.876760	405.861661	-100.209275	456.963688	426.293327	-99.311589	364.248309	389.455369	-29.445736	72.726247	931.031904	-424.162034	139.671988	875.803062	-416.353342	168.343988	896.443314	-404.318289	170.458864	792.086961	-410.577273	195.246396	684.154513	-385.986147	194.961764	665.007724	-271.851294	-13.605010	375.566827	-384.238365	-90.077370	373.840710	-338.311556	77.325996	266.761611	-403.978106	137.976249	595.420760	-411.376160	109.300004	514.876686	-393.763056	43.362939	454.821065	-393.188699	131.133972	504.549364	-363.065392	158.238958	242.334714	-343.520525	-204.515483	868.687340	-212.733409	-48.659451	84.073663	-419.293670	-50.222651	80.066719	-21.778372	
254	1.2700	413.511790	1287.159538	-53.009512	432.704859	1298.815490	-379.923957	413.182178	1398.112811	-213.911116	428.481757	1225.414338	-205.297470	508.353101	1063.085062	28.546115	710.162251	920.432204	-46.202773	506.371418	1059.752878	-463.441478	709.709024	927.899424	-393.589824	-104.223619	1164.536165	-217.108494	85.565467	1097.756558	-381.887498	45.626276	1119.795367	-44.380704	83.676231	1039.164453	-350.911240	NaN	NaN	NaN	-61.815332	1197.349297	-191.854686	-63.685159	1189.967888	-253.418275	-3.563129	1072.724537	-11.495296	32.002593	1043.099900	-414.636729	98.748707	997.281517	-7.998737	184.114508	965.443002	-9.961020	239.204342	898.286610	-14.841084	202.464356	994.024254	-27.181722	303.236306	813.632403	-33.404195	306.656719	789.937346	-143.308024	283.023005	691.919636	-10.498572	289.396138	607.164225	-34.123929	256.057883	527.146628	-39.488056	313.057233	608.523662	-65.484154	238.889424	442.113271	-48.296650	181.783434	405.972302	-100.179366	456.878834	426.477073	-99.311924	364.161888	389.644850	-29.445505	72.742178	930.956475	-424.086634	139.664004	875.695576	-416.301735	168.353093	896.314714	-404.252228	170.404309	791.915210	-410.501065	195.147519	684.009636	-385.958039	194.865089	664.856008	-271.829136	-13.585111	375.336686	-384.236397	-90.061524	373.609154	-338.343684	77.376912	266.611361	-403.993208	137.922669	595.267952	-411.359526	109.296669	514.681942	-393.731260	43.365938	454.564274	-393.170091	131.098319	504.411061	-363.023464	158.301490	242.218157	-343.528938	-204.508691	868.682906	-212.708285	-48.657006	84.061664	-419.291605	-50.209102	80.026381	-21.796235	
